<?xml version="1.0" encoding="iso-8859-1"?>
<!-- Uploaded to: SVG Repo, www.svgrepo.com, Generator: SVG Repo Mixer Tools -->
<svg fill="#FFFFFF" height="30px" width="30px" version="1.1" id="Layer_1" xmlns="http://www.w3.org/2000/svg" xmlns:xlink="http://www.w3.org/1999/xlink" 
	 viewBox="0 0 512 512" xml:space="preserve">
<g>
	<g>
		<path d="M503.983,4.276H256H8.017C3.589,4.276,0,7.865,0,12.292v102.614v384.802c0,4.427,3.589,8.017,8.017,8.017H256h247.983
			c4.427,0,8.017-3.589,8.017-8.017V114.906V12.292C512,7.865,508.411,4.276,503.983,4.276z M495.967,491.691H256H16.033V122.923
			H256h239.967V491.691z M495.967,106.889H256H16.033v-86.58H256h239.967V106.889z"/>
	</g>
</g>
<g>
	<g>
		<path d="M427.023,38.48H332.96c-4.427,0-8.017,3.589-8.017,8.017c0,4.427,3.589,8.017,8.017,8.017h94.063
			c4.427,0,8.017-3.589,8.017-8.017C435.04,42.07,431.45,38.48,427.023,38.48z"/>
	</g>
</g>
<g>
	<g>
		<path d="M469.779,38.48h-17.102c-4.427,0-8.017,3.589-8.017,8.017c0,4.427,3.589,8.017,8.017,8.017h17.102
			c4.427,0,8.017-3.589,8.017-8.017C477.795,42.07,474.206,38.48,469.779,38.48z"/>
	</g>
</g>
<g>
	<g>
		<path d="M264.551,29.929c-3.835,0-7.612,0.647-11.222,1.924c-0.009,0.003-0.016,0.008-0.025,0.01
			c-13.412,4.754-22.423,17.504-22.423,31.737c0,14.232,9.011,26.982,22.422,31.737c0.009,0.003,0.016,0.008,0.025,0.011
			c3.611,1.276,7.387,1.924,11.222,1.924c18.566,0,33.67-15.105,33.67-33.67S283.117,29.929,264.551,29.929z M264.551,81.236
			c-2.011,0-3.988-0.339-5.88-1.007c-0.001,0-0.002-0.001-0.003-0.001c-7.03-2.488-11.754-9.17-11.754-16.629
			s4.723-14.14,11.755-16.629c0.001,0,0.002,0,0.003-0.001c1.891-0.669,3.869-1.007,5.88-1.007c9.725,0,17.637,7.912,17.637,17.637
			S274.276,81.236,264.551,81.236z"/>
	</g>
</g>
<g>
	<g>
		<path d="M170.489,29.929c-18.566,0-33.67,15.105-33.67,33.67s15.105,33.67,33.67,33.67s33.67-15.104,33.67-33.67
			S189.054,29.929,170.489,29.929z M170.489,81.236c-9.725,0-17.637-7.912-17.637-17.637s7.912-17.637,17.637-17.637
			s17.637,7.912,17.637,17.637S180.213,81.236,170.489,81.236z"/>
	</g>
</g>
<g>
	<g>
		<path d="M76.426,29.929c-18.566,0-33.67,15.105-33.67,33.67s15.105,33.67,33.67,33.67s33.67-15.104,33.67-33.67
			S94.992,29.929,76.426,29.929z M76.426,81.236c-9.725,0-17.637-7.912-17.637-17.637s7.912-17.637,17.637-17.637
			s17.637,7.912,17.637,17.637S86.151,81.236,76.426,81.236z"/>
	</g>
</g>
<g>
	<g>
		<path d="M480.454,214.537l-84.651-84.653c-3.131-3.131-8.207-3.131-11.338,0L330.5,183.85H256H72.15
			c-4.427,0-8.017,3.589-8.017,8.017s3.589,8.017,8.017,8.017H256h58.466l-64.135,64.135l-56.65,56.65H72.15
			c-4.427,0-8.017,3.589-8.017,8.017s3.589,8.017,8.017,8.017h105.497l-17.278,17.278c-0.009,0.009-0.017,0.017-0.027,0.027
			l-0.014,0.014c-0.025,0.025-0.045,0.051-0.069,0.077c-0.159,0.164-0.314,0.332-0.461,0.51c-0.055,0.065-0.1,0.135-0.153,0.202
			c-0.108,0.14-0.216,0.28-0.315,0.429c-0.065,0.097-0.122,0.199-0.183,0.299c-0.074,0.122-0.151,0.243-0.218,0.37
			c-0.068,0.128-0.127,0.26-0.188,0.39c-0.049,0.105-0.102,0.207-0.146,0.315c-0.067,0.162-0.124,0.329-0.181,0.495
			c-0.028,0.082-0.06,0.161-0.086,0.245c-0.064,0.212-0.117,0.426-0.162,0.642c-0.009,0.042-0.022,0.081-0.031,0.123l-0.005,0.025
			c-0.002,0.01-0.004,0.019-0.005,0.029l-19.862,99.316H72.15c-4.427,0-8.017,3.589-8.017,8.017c0,4.427,3.589,8.017,8.017,8.017
			h72.641c0.012,0,0.023,0.001,0.036,0.001c0.003,0,0.005,0,0.009,0c0.003,0,0.005,0,0.009,0c0.012,0,0.024-0.001,0.036-0.001h6.276
			c2.139,0,4.077-0.843,5.514-2.208l35.038-7.008c0.005-0.001,0.01-0.002,0.015-0.003l0.032-0.006l60.415-12.083
			c0.007-0.001,0.015-0.003,0.023-0.004l0.028-0.005c0.047-0.01,0.091-0.025,0.138-0.035c0.21-0.046,0.419-0.096,0.625-0.158
			c0.088-0.027,0.171-0.061,0.258-0.09c0.161-0.056,0.324-0.11,0.482-0.175c0.112-0.047,0.219-0.102,0.328-0.153
			c0.126-0.059,0.253-0.115,0.377-0.182c0.13-0.07,0.253-0.148,0.378-0.223c0.097-0.059,0.197-0.114,0.291-0.177
			c0.149-0.099,0.29-0.208,0.431-0.316c0.066-0.051,0.136-0.097,0.201-0.152c0.175-0.144,0.341-0.297,0.503-0.455
			c0.027-0.027,0.057-0.048,0.082-0.075l0.016-0.016c0.009-0.009,0.017-0.016,0.025-0.025l5.309-5.309l110.306-110.306
			l48.015-48.015l60.465-60.465C483.584,222.743,483.584,217.667,480.454,214.537z M202.669,334.353
			c0.001-0.001,0.002-0.002,0.003-0.002l58.998-58.998l68-68l15.872,15.873L193.208,375.56l-15.873-15.873L202.669,334.353z
			 M356.878,234.564l18.896,18.896l-69.556,69.556l-55.886,55.886l-26.891,26.891l-18.896-18.896L356.878,234.564z M155.055,455.283
			l3.774-18.869l15.095,15.095L155.055,455.283z M192.819,447.731l-30.211-30.211l8.314-41.57l16.618,16.618l30.233,30.233
			l16.618,16.617L192.819,447.731z M360.637,323.016L250.65,433.002l-15.873-15.872l26.891-26.891l55.886-55.886l69.556-69.556
			l15.872,15.872L360.637,323.016z M414.32,269.332l-21.54-21.54l-30.234-30.233l-21.54-21.541l49.129-49.128l73.314,73.314
			L414.32,269.332z"/>
	</g>
</g>
<g>
	<g>
		<path d="M394.211,169.096c-3.13-3.131-8.207-3.131-11.337,0l-19.24,19.24c-3.131,3.131-3.131,8.207,0,11.337
			c1.565,1.565,3.617,2.348,5.668,2.348s4.103-0.782,5.668-2.348l19.24-19.24C397.342,177.302,397.342,172.225,394.211,169.096z"/>
	</g>
</g>
</svg>