<?xml version="1.0" encoding="iso-8859-1"?>
<!-- Uploaded to: SVG Repo, www.svgrepo.com, Generator: SVG Repo Mixer Tools -->
<!DOCTYPE svg PUBLIC "-//W3C//DTD SVG 1.1//EN" "http://www.w3.org/Graphics/SVG/1.1/DTD/svg11.dtd">
<svg fill="#FFFFFF" height="30px" width="30px" version="1.1" id="Capa_1" xmlns="http://www.w3.org/2000/svg" xmlns:xlink="http://www.w3.org/1999/xlink" 
	 viewBox="0 0 386.187 386.187" xml:space="preserve">
<path d="M48.626,131.93c0.418,4.952,4.745,8.635,9.723,8.215c0.327-0.028,0.647-0.072,0.963-0.133
	c6.549,36.481,38.521,64.251,76.858,64.251s70.31-27.77,76.858-64.251c0.314,0.061,0.635,0.104,0.961,0.133
	c4.965,0.416,9.307-3.261,9.724-8.214l1.171-13.919c0.416-4.953-3.262-9.307-8.214-9.724c-1.532-0.128-3.003,0.134-4.319,0.703
	c-3.458-15.338-11.44-28.979-22.469-39.443c-0.032-0.036-0.064-0.071-0.098-0.106c-0.34-0.366-0.703-0.697-1.085-0.993
	c-13.88-12.643-32.32-20.358-52.529-20.358c-37.154,0-68.331,26.084-76.181,60.901c-1.315-0.569-2.78-0.83-4.318-0.703
	c-4.953,0.417-8.631,4.77-8.215,9.723L48.626,131.93z M136.17,66.09c11.915,0,23.03,3.485,32.381,9.491
	c-9.601,6.155-20.789,9.466-32.381,9.466c-5.385,0-10.727-0.713-15.876-2.119c-4.79-1.311-9.743,1.517-11.053,6.313
	c-1.309,4.795,1.518,9.743,6.313,11.053c6.693,1.827,13.63,2.754,20.616,2.754c16.78,0,32.907-5.337,46.26-15.176
	c8.633,10.406,13.826,23.759,13.826,38.305c0,33.132-26.954,60.087-60.086,60.087s-60.086-26.955-60.086-60.087
	S103.039,66.09,136.17,66.09z M144.559,124c0-4.971,4.029-9,9-9h10.001c4.971,0,9,4.029,9,9s-4.029,9-9,9h-10.001
	C148.588,133,144.559,128.971,144.559,124z M133.671,151h4.998c4.971,0,9,4.029,9,9s-4.029,9-9,9h-4.998c-4.971,0-9-4.029-9-9
	S128.701,151,133.671,151z M100.263,124c0-4.971,4.029-9,9-9h10c4.971,0,9,4.029,9,9s-4.029,9-9,9h-10
	C104.292,133,100.263,128.971,100.263,124z M291.887,92.778c0.04,4.971-3.956,9.222-8.927,9.222c-0.025,0-0.05,0-0.075,0
	c-4.937,0-8.958-4.13-8.998-9.076c-0.079-9.746,7.034-15.867,12.749-20.666c4.485-3.767,7.426-6.417,7.426-8.842
	c0-4.91-3.993-8.904-8.902-8.904c-4.913,0-8.906,3.994-8.906,8.904c0,4.971-4.029,9-9,9s-9-4.029-9-9
	c0-14.835,12.068-26.904,26.902-26.904c14.838,0,26.906,12.069,26.906,26.904c0,10.997-8.006,17.719-13.852,22.627
	C295.998,87.902,291.876,91.511,291.887,92.778z M260.624,376.292c0.134,1.157,0.039,2.295-0.254,3.372
	c-0.241,0.891-0.615,1.717-1.1,2.475c-0.002,0.003-0.004-0.014-0.007-0.01c-1.071,1.676-2.695,2.961-4.69,3.635
	c-0.291,0.099-0.587,0.103-0.89,0.171c-0.765,0.176-1.533,0.064-2.278,0.064h-75.252c-4.971,0-9-4.029-9-9s4.029-9,9-9h64.078
	l-23.773-97.646c-3.654-15.023-22.957-27.718-43.359-29.327c-6.951,11.05-21.069,18.31-36.688,18.31s-29.736-7.32-36.688-18.37
	c-20.402,1.609-39.705,14.374-43.357,29.397L32.591,368h64.076c4.971,0,9,4.029,9,9s-4.029,9-9,9h-75.25
	c-0.09,0-0.179,0.164-0.27,0.164c-0.663,0-1.336,0.085-2.01-0.068c-0.304-0.069-0.603-0.152-0.894-0.252
	c-1.979-0.67-3.595-1.98-4.665-3.639c-0.508-0.785-0.897-1.65-1.142-2.578c-0.277-1.048-0.369-2.149-0.244-3.272
	c0.05-0.466,0.136-0.905,0.254-1.346l26.428-108.676C44.791,241.999,73.396,223,103.997,223h1.237c3.845,0,7.265,2.395,8.513,6.032
	c2.119,6.173,10.584,12.376,22.664,12.376s20.545-6.218,22.664-12.391c1.248-3.637,4.668-6.017,8.513-6.017h1.236
	c30.6,0,59.205,18.999,65.124,43.332l26.428,108.65C260.49,375.409,260.573,375.843,260.624,376.292z M291.991,118.74
	c0,4.971-4.029,9.035-9,9.035s-8.943-3.995-8.943-8.966v-0.069c0-4.971,3.972-9,8.943-9S291.991,113.77,291.991,118.74z
	 M374.048,39.052v86.867c0,21.275-17.757,39.081-39.032,39.081H251.8l-26.912,35.664c-1.768,2.358-4.472,3.37-7.208,3.37
	c-1.879,0-3.773-0.555-5.392-1.769c-3.978-2.981-4.784-8.561-1.803-12.537l29.612-39.375c1.7-2.268,4.368-3.353,7.201-3.353h87.717
	c11.35,0,21.032-9.731,21.032-21.081V39.052c0-11.35-9.683-21.052-21.032-21.052h-104.82c-11.351,0-20.585,9.41-20.585,20.759
	c0,4.971-4.029,9.175-9,9.175s-9-4.146-9-9.117C191.611,17.542,208.92,0,230.196,0h104.82C356.291,0,374.048,17.776,374.048,39.052z
	"/>
</svg>